<svg id="Layer_1" data-name="Layer 1" xmlns="http://www.w3.org/2000/svg" xmlns:xlink="http://www.w3.org/1999/xlink" viewBox="0 0 397.97 168.57"><defs><style>.cls-1{fill:#fff;}.cls-2{fill:#61b885;}.cls-3{fill:#456aaa;}.cls-4{opacity:0.95;fill:url(#linear-gradient);}</style><linearGradient id="linear-gradient" x1="62.24" y1="143.68" x2="62.24" gradientUnits="userSpaceOnUse"><stop offset="0" stop-color="#f9ed32"/><stop offset="0.8" stop-color="#1aae86"/></linearGradient></defs><title>logo-alt</title><path class="cls-1" d="M199.93,110V71.27c0-9.54-5-18.2-14.83-18.2s-15.41,8.66-15.41,18.2V110H151.78V37.51h16.59l1.32,8.81c3.82-7.34,12.19-10,19.08-10,8.66,0,17.32,3.52,21.43,13.51,6.46-10.28,14.83-13.21,24.22-13.21,20.55,0,30.68,12.63,30.68,34.35v39H247.2V71c0-9.54-4-17.62-13.65-17.62s-15.71,8.37-15.71,17.91V110H199.93Z"/><path class="cls-1" d="M283.32,37.36V110h17.91V37.36H283.32Z"/><path class="cls-1" d="M398,7.41V110H381.24l-1.17-10c-5.58,8.66-14.53,11.6-23.34,11.6-21.29,0-37.29-14.09-37.29-37.88,0-25,15.71-37.88,36.85-37.88,7.63,0,19.53,4.11,23.78,11.6V7.41H398ZM337.34,73.77c0,12.63,9.1,21.29,20.55,21.29s21-8.22,21-21.29a20.65,20.65,0,0,0-21-21.14C346.44,52.63,337.34,60.7,337.34,73.77Z"/><path class="cls-2" d="M174.93,150.37V141a4.83,4.83,0,0,0-5-5.12,4.93,4.93,0,0,0-5,5.22v9.27h-1.55V141.1a5,5,0,1,0-10,0v9.27h-1.55V134.75h1.45l0,2.59a5.5,5.5,0,0,1,5.09-2.91,5.74,5.74,0,0,1,5.79,3.86,6,6,0,0,1,5.79-3.86,6.28,6.28,0,0,1,6.55,6.58v9.36h-1.55Z"/><path class="cls-2" d="M195.85,134.75v15.62H194.3V147a7.31,7.31,0,0,1-6.39,3.57,8,8,0,0,1,0-16.06,7.09,7.09,0,0,1,6.39,3.6v-3.41h1.55Zm-14.32,7.81a6.27,6.27,0,0,0,6.39,6.55c8.7,0,8.7-13.06,0-13.06A6.25,6.25,0,0,0,181.53,142.56Z"/><path class="cls-2" d="M201.51,134.75l0.06,2.78a5.5,5.5,0,0,1,5.19-2.94,6.1,6.1,0,0,1,3.35.92l-0.7,1.26a5,5,0,0,0-2.66-.73,5.19,5.19,0,0,0-5.15,5.22v9.11h-1.55V134.75h1.45Z"/><path class="cls-2" d="M214,128.23v13.35l7.37-6.83h2.06v0.06l-7.9,7.3,8.82,8.16v0.09h-2L214,142.72v7.65h-1.52V128.23H214Z"/><path class="cls-2" d="M225.41,142.56a7.85,7.85,0,0,1,7.94-8.06c4.4,0,8.32,2.69,7.72,8.79H227a6.15,6.15,0,0,0,6.36,5.79A7.35,7.35,0,0,0,239,146.7l1.11,0.88a8.59,8.59,0,0,1-6.74,3A7.66,7.66,0,0,1,225.41,142.56Zm14.26-.63c0-3.86-2.56-6-6.32-6a6.24,6.24,0,0,0-6.36,6h12.68Z"/><path class="cls-2" d="M248,130v4.71h5.31V136H248v9.52c0,2.12.44,3.61,2.88,3.61a5.79,5.79,0,0,0,2.4-.63l0.54,1.26a6.82,6.82,0,0,1-2.94.79c-3.32,0-4.4-2-4.4-5V136h-3.32v-1.3h3.32v-4.55Z"/><path class="cls-2" d="M256.87,134.68v15.68h1.55V134.68h-1.55Z"/><path class="cls-2" d="M264.36,134.75v2.78a6.22,6.22,0,0,1,5.57-3.07c4.17,0,7.05,2.56,7.05,6.89v9h-1.55v-9c0-3.54-2.18-5.44-5.57-5.41a5.43,5.43,0,0,0-5.47,5.69v8.7h-1.55V134.75h1.52Z"/><path class="cls-2" d="M293.58,134.12l1,0.89-1.52,1.77a7.69,7.69,0,0,1-2.28,12c2.75,1,4.27,2.91,4.27,5.6,0,4.21-3.29,6.23-7.43,6.23s-7.4-2.28-7.4-6.23h1.55c0,3.19,2.72,4.71,5.85,4.71s5.91-1.39,5.91-4.71-3-4.68-5.91-4.68c-4.52,0-7.34-3.38-7.34-7.56,0-4.87,3.29-7.62,7.34-7.62a7.93,7.93,0,0,1,4.43,1.42Zm-11.73,8a5.72,5.72,0,0,0,5.79,6,6,6,0,0,0,5.85-6c0-4-2.62-6.07-5.85-6.07S281.85,138,281.85,142.08Z"/><path class="cls-2" d="M306.88,134.68v15.68h1.55V134.68h-1.55Z"/><path class="cls-2" d="M314.38,134.75v2.78a6.22,6.22,0,0,1,5.57-3.07c4.17,0,7.05,2.56,7.05,6.89v9h-1.55v-9c0-3.54-2.18-5.44-5.57-5.41a5.43,5.43,0,0,0-5.47,5.69v8.7h-1.55V134.75h1.52Z"/><path class="cls-2" d="M346,128.23v22.14h-1.52v-3.45a7.35,7.35,0,0,1-6.51,3.7c-4.36,0-7.81-2.88-7.81-8.06s3.48-8.06,7.84-8.06a6.91,6.91,0,0,1,6.48,3.67v-9.93H346ZM331.7,142.56c0,4.33,2.88,6.55,6.39,6.55a6.56,6.56,0,0,0,0-13.12C334.58,136,331.7,138.16,331.7,142.56Z"/><path class="cls-2" d="M349.76,142.59a7.94,7.94,0,1,1,15.87,0A7.94,7.94,0,1,1,349.76,142.59Zm14.36,0a6.42,6.42,0,1,0-12.84,0A6.42,6.42,0,1,0,364.11,142.59Z"/><path class="cls-2" d="M368.47,142.59a7.94,7.94,0,1,1,15.87,0A7.94,7.94,0,1,1,368.47,142.59Zm14.36,0a6.42,6.42,0,1,0-12.84,0A6.42,6.42,0,1,0,382.83,142.59Z"/><path class="cls-2" d="M389.37,134.75l0.06,2.78a5.5,5.5,0,0,1,5.19-2.94,6.1,6.1,0,0,1,3.35.92l-0.7,1.26a5,5,0,0,0-2.66-.73,5.19,5.19,0,0,0-5.15,5.22v9.11h-1.55V134.75h1.45Z"/><path class="cls-3" d="M105.27,0A19.15,19.15,0,0,0,91.65,5.67l-17,17v121a24.89,24.89,0,1,0,49.79,0V19.21A19.21,19.21,0,0,0,105.27,0Z"/><path class="cls-4" d="M105.27,0A19.15,19.15,0,0,0,91.65,5.67l-17,17-69,69h0a19.21,19.21,0,0,0,13.57,32.8h86.06a19.21,19.21,0,0,1,19.21,19.21V19.21A19.21,19.21,0,0,0,105.27,0Z"/></svg>